<svg aria-hidden="true" style="position:absolute;width:0;height:0;overflow:hidden" xmlns="http://www.w3.org/2000/svg">
  <defs>
    <symbol id="icon-customers-1" viewBox="0 0 59 32">
      <path d="m21.71 4 4 3.81h-7.43v18.51h19.43v-7.08l4 3.82V4h-20zm15.83 14.8L26.18 7.98h11.36V18.8zM34 23.6H21.36V11.16h.9v11.61H34v.84zm-10.13 6.14-.47-.97h-.39l.69 1.28v.75h.35v-.75l.68-1.28h-.38l-.48.97zm1.74-.97h.09l.76 2.03h-.36l-.17-.47h-.79l-.16.47h-.37l.77-2.03h.23zm-.37 1.28h.6l-.3-.86-.3.86zm2.45-.34-.04-.06c-.05-.06-.1-.13-.12-.2s-.04-.13-.04-.2c0-.1.02-.2.06-.27s.1-.13.19-.18a.6.6 0 0 1 .28-.06c.1 0 .19.02.26.06a.44.44 0 0 1 .1.71.96.96 0 0 1-.13.13l-.15.1.4.47a.83.83 0 0 0 .09-.38h.3c0 .1-.02.2-.03.28s-.05.17-.1.25a.72.72 0 0 1-.05.09l.3.35h-.4l-.11-.14a.8.8 0 0 1-.21.12.94.94 0 0 1-.67-.03.55.55 0 0 1-.22-.2.56.56 0 0 1-.08-.3c0-.08.01-.15.05-.21s.08-.13.14-.18l.19-.15zm.17.2-.04.04c-.05.04-.09.07-.11.11l-.05.1v.08c0 .06 0 .12.03.17s.06.08.11.11.11.04.19.04a.51.51 0 0 0 .32-.11l-.45-.54zm.08-.37.13-.08c.06-.04.1-.08.12-.11s.04-.09.04-.15a.21.21 0 0 0-.21-.2.2.2 0 0 0-.2.13.28.28 0 0 0-.02.12c0 .04 0 .08.03.13l.09.14.02.03zm3.55.6h-.34c-.01.09-.04.16-.07.23s-.08.1-.14.13a.52.52 0 0 1-.24.05c-.08 0-.15-.02-.21-.05s-.1-.08-.15-.14l-.08-.21a1.2 1.2 0 0 1-.03-.28v-.17c0-.1.01-.2.03-.29s.05-.15.1-.21c.03-.06.08-.1.14-.13s.13-.05.21-.05c.1 0 .18.02.24.05s.1.08.14.15c.03.06.05.13.06.22h.35c-.02-.14-.06-.26-.12-.36s-.15-.19-.26-.25a.86.86 0 0 0-.4-.09c-.13 0-.25.03-.35.07s-.19.1-.26.2c-.08.08-.13.18-.17.3s-.06.25-.06.4v.16c0 .15.02.28.06.4s.1.22.16.3a.74.74 0 0 0 .6.26c.17 0 .3-.03.42-.09s.2-.14.26-.24c.07-.1.1-.23.12-.36zm1.94-.3v-.11c0-.15-.02-.3-.06-.41s-.1-.23-.17-.31c-.07-.1-.16-.16-.27-.2s-.21-.07-.34-.07c-.12 0-.24.02-.34.07a.83.83 0 0 0-.44.5c-.04.13-.06.27-.06.42v.11c0 .15.02.3.06.41s.1.23.18.31a.77.77 0 0 0 .6.27c.13 0 .24-.02.35-.07s.19-.1.26-.2c.08-.08.13-.18.17-.3s.06-.27.06-.42zm-.35-.11v.11c0 .11 0 .21-.03.3s-.05.16-.1.22c-.04.06-.09.1-.15.14s-.13.04-.2.04c-.08 0-.15-.01-.21-.04s-.12-.08-.16-.14c-.04-.06-.07-.13-.1-.22s-.03-.19-.03-.3v-.11c0-.12.01-.22.03-.3s.06-.16.1-.22a.42.42 0 0 1 .36-.18.4.4 0 0 1 .36.18c.05.06.08.13.1.22.02.08.03.18.03.3z"/>
    </symbol>
    <symbol id="icon-customers-2" viewBox="0 0 59 32">
      <path d="M28.64 3.4h-.08c-.12-.02-.24-.02-.36-.02h-.26a14.46 14.46 0 0 0-.74.02c-2.08.11-4.12.63-6.01 1.53l-.25.12V17.7l.58-.2a19.62 19.62 0 0 1 6.23-1.1v1.67l-.6.02h-.05a18.54 18.54 0 0 0-7.8 2.2V4.06a16.98 16.98 0 0 1 4.44-1.8c1.37-.36 2.78-.54 4.2-.55h.24a12 12 0 0 1 2.93.37v1.64c-.66-.15-1.34-.26-2.02-.3h-.04l-.42-.03zm2.88 1.66a17.95 17.95 0 0 0 5.53-.52c1.47-.37 2.9-.93 4.23-1.65v15.93c-1.4.81-2.89 1.42-4.45 1.81-1.37.36-2.78.54-4.2.54-1.06.01-2.13-.11-3.17-.37V4.76a13.3 13.3 0 0 0 2.06.3zm8.1.13-.57.2a19.61 19.61 0 0 1-7.47 1.06l-.46-.03v13.01l.4.04a15.34 15.34 0 0 0 4.91-.44c1.01-.26 2-.62 2.95-1.07l.25-.12V5.2zM20.42 25.84a.86.86 0 0 0-.64-.26.95.95 0 0 0-.66.26.96.96 0 0 0-.25.65v2.16a.87.87 0 0 0 .3.74c.08.07.18.13.3.15.1.03.2.05.32.05s.24-.03.35-.08a.9.9 0 0 0 .54-.84v-.24h-.56v.2a.5.5 0 0 1-.04.19.35.35 0 0 1-.08.12.33.33 0 0 1-.12.06.37.37 0 0 1-.12.02c-.05 0-.1 0-.14-.02s-.1-.05-.12-.1a.51.51 0 0 1-.08-.28v-2.03c0-.1.02-.22.07-.32a.28.28 0 0 1 .28-.13c.05 0 .1 0 .14.03s.08.05.11.1c.07.08.1.18.1.28v.19h.56v-.22a1.02 1.02 0 0 0-.26-.68zM23.79 25.81a1 1 0 0 0-.98-.18.91.91 0 0 0-.52.48 1 1 0 0 0-.09.42v2.08c0 .15.03.3.09.43.05.11.12.21.22.3.08.07.18.13.3.17a.98.98 0 0 0 .98-.18.9.9 0 0 0 .3-.72v-2.07a1 1 0 0 0-.09-.42.93.93 0 0 0-.21-.3zm-.27 2.8a.38.38 0 0 1-.1.3.41.41 0 0 1-.54 0c-.04-.03-.07-.08-.1-.13s-.02-.11-.01-.17v-2.07a.38.38 0 0 1 .1-.3.41.41 0 0 1 .54 0c.04.03.07.08.1.13s.02.11.01.16v2.08zM28.21 29.54v-3.93h-.55l-.71 2.08h-.01l-.72-2.08h-.54v3.93h.56v-2.4h.01l.55 1.7h.28l.56-1.7v2.4h.57zM31.4 25.88a.79.79 0 0 0-.31-.21 1.25 1.25 0 0 0-.41-.06h-.84v3.93h.56v-1.53h.3c.17 0 .34-.03.5-.11a.94.94 0 0 0 .44-.64 2.8 2.8 0 0 0-.03-1.02.83.83 0 0 0-.2-.36zm-.28 1.2c0 .07-.02.14-.06.2a.31.31 0 0 1-.14.14.57.57 0 0 1-.27.05h-.25v-1.33h.29c.08 0 .17 0 .25.04.06.04.1.09.13.15.03.07.05.14.05.22v.53zM34.06 25.6h-.46l-.87 3.94h.57l.16-.84h.77l.16.84h.56l-.89-3.93zm-.52 2.56.28-1.43h.01l.28 1.43h-.57zM37.69 27.98h-.01l-.85-2.37h-.54v3.93h.56v-2.36h.01l.86 2.36h.53v-3.93h-.56v2.37zM41.11 25.6l-.45 1.57h-.01l-.45-1.56h-.6l.77 2.27v1.66h.57v-1.66l.77-2.27h-.6zM18.86 30.65h.27v.76h.18v-.76h.27v-.15h-.72v.15zM21.13 30.5l-.35.91h.2l.07-.2h.36l.08.2h.2l-.37-.91h-.19zm-.03.55.12-.34.13.34h-.25zM23.38 31.08h.2v.11a.36.36 0 0 1-.21.08.23.23 0 0 1-.2-.09.39.39 0 0 1-.06-.23c0-.2.09-.3.26-.3a.2.2 0 0 1 .2.14l.19-.04c-.04-.18-.17-.27-.39-.27a.46.46 0 0 0-.32.12c-.04.04-.08.1-.1.16s-.03.13-.03.2c0 .12.04.24.12.33a.45.45 0 0 0 .35.14c.14 0 .28-.05.38-.15v-.36h-.4v.16zM25.67 30.5h-.18v.91h.64v-.15h-.46v-.76zM27.61 30.5h-.18v.91h.18v-.91zM29.5 31.1l-.37-.6h-.18v.91h.18v-.6l.36.6h.19v-.91h-.17v.6zM31.22 31.01h.46v-.15h-.46v-.2h.5v-.16h-.68v.91h.69v-.15h-.5V31zM35.38 30.86h-.36v-.36h-.19v.91h.19v-.4h.36v.4h.18v-.91h-.18v.36zM37.1 31.01h.46v-.15h-.46v-.2h.5v-.16h-.68v.91h.7v-.15h-.52V31zM39.44 31.01c.16-.03.24-.1.24-.25a.21.21 0 0 0-.09-.2.52.52 0 0 0-.27-.06h-.38v.91h.18v-.38h.04c.04 0 .08 0 .11.02a.2.2 0 0 1 .07.07l.2.29h.22l-.11-.18a.64.64 0 0 0-.2-.22zm-.18-.13h-.14v-.23h.15c.06 0 .12 0 .18.03.02 0 .03.02.03.04l.01.05-.01.05-.04.04a.54.54 0 0 1-.18.02zM41.2 31.01h.46v-.15h-.45v-.2h.49v-.16h-.68v.91h.7v-.15h-.51V31z"/>
    </symbol>
    <symbol id="icon-customers-3" viewBox="0 0 57 32">
      <path d="M20.3 27.16h.04l.02.02.12.11c-.1.1-.21.17-.34.22-.16.05-.32.08-.5.08a1.3 1.3 0 0 1-.45-.08 1 1 0 0 1-.34-.2.9.9 0 0 1-.22-.32 1.06 1.06 0 0 1 0-.82.95.95 0 0 1 .24-.32c.1-.09.23-.16.36-.2a1.46 1.46 0 0 1 .91 0c.12.04.23.1.33.17l-.1.13-.03.02a.07.07 0 0 1-.04 0 .1.1 0 0 1-.04 0l-.06-.04-.07-.04a.9.9 0 0 0-.43-.09.99.99 0 0 0-.33.06.7.7 0 0 0-.44.4.8.8 0 0 0-.06.32c0 .11.01.22.06.33a.72.72 0 0 0 .42.4 1.45 1.45 0 0 0 .5.04.74.74 0 0 0 .4-.17.1.1 0 0 1 .06-.03zM23.83 26.58c0 .14-.03.28-.08.4s-.13.23-.23.32-.23.16-.36.2c-.3.1-.63.1-.93 0a1.06 1.06 0 0 1-.36-.2.92.92 0 0 1-.23-.32 1.04 1.04 0 0 1 0-.8.95.95 0 0 1 .23-.33c.1-.09.23-.15.36-.2.3-.1.63-.1.93 0 .13.05.25.12.36.21a.93.93 0 0 1 .3.72zm-.32 0a.85.85 0 0 0-.06-.32.66.66 0 0 0-.42-.4 1.09 1.09 0 0 0-.67 0 .72.72 0 0 0-.26.15.65.65 0 0 0-.17.25.93.93 0 0 0 0 .65c.04.09.1.17.17.24.07.07.16.12.26.15.21.07.45.07.67 0 .1-.03.19-.08.26-.15a.7.7 0 0 0 .16-.24c.04-.1.06-.22.06-.33zM26.23 26.92l.03.08a2.53 2.53 0 0 1 .07-.15l.78-1.2.05-.05a.2.2 0 0 1 .06 0h.23v1.96h-.27V26l-.79 1.22c0 .02-.02.04-.04.05l-.07.02h-.04c-.03 0-.05 0-.07-.02l-.05-.05-.8-1.23v1.58h-.27V25.6H25.35l.04.04.8 1.21a.4.4 0 0 1 .04.07zM29.16 26.83v.73h-.3V25.6h.67c.13 0 .26.01.38.04.1.03.19.07.27.12a.5.5 0 0 1 .15.2c.04.08.05.16.05.25 0 .08-.02.17-.05.25a.55.55 0 0 1-.17.2.79.79 0 0 1-.27.13c-.12.03-.24.04-.37.04h-.37zm0-.21h.36c.08 0 .16-.01.24-.04a.52.52 0 0 0 .17-.08.38.38 0 0 0 .14-.3c0-.05 0-.1-.03-.16s-.06-.1-.1-.13a.66.66 0 0 0-.41-.1h-.37v.8zM33.25 27.57H33l-.07-.02a.13.13 0 0 1-.04-.05l-.2-.47h-1.05l-.21.47a.1.1 0 0 1-.04.05.12.12 0 0 1-.07.02h-.24l.92-1.97h.31l.93 1.96zm-1.5-.73h.85l-.36-.8a1.25 1.25 0 0 1-.07-.19l-.04.1a1.3 1.3 0 0 1-.03.09l-.36.8zM34.56 25.6l.05.04 1.33 1.49v-1.54h.28v1.98h-.16c-.02 0-.04 0-.06-.02a.18.18 0 0 1-.05-.03l-1.33-1.48v1.52h-.27V25.6h.22zM38.46 26.78v.78h-.3v-.78l-.85-1.18h.28c.02 0 .04 0 .06.02.02 0 .03.02.04.04l.53.76.06.1.03.08.04-.09a.68.68 0 0 1 .06-.09l.52-.77a.23.23 0 0 1 .03-.04.1.1 0 0 1 .07-.02h.28l-.85 1.2zM26.08 22.3l.4.03c2.05-.78 3.8-2.07 5-3.7s1.82-3.5 1.77-5.43L31 11.26c.46 2.05.24 4.17-.63 6.12s-2.35 3.65-4.28 4.92z"/>
      <path d="m25.27 22.2.06.02c2.07-1.26 3.65-3.03 4.53-5.07s1.02-4.26.41-6.37l-3.22-2.75c1.3 2.26 1.83 4.8 1.51 7.3s-1.45 4.9-3.3 6.88zM36.2 15.47a9.91 9.91 0 0 1-3.79 5.44c-.56.41-1.16.78-1.8 1.1 1.56-.39 3-1.08 4.2-2.02s2.12-2.1 2.7-3.4l-1.3-1.12z"/>
      <path d="m35.7 15.16-1.87-1.59c-.03 1.81-.64 3.59-1.75 5.13s-2.68 2.82-4.55 3.67c.42 0 .84-.02 1.25-.06 1.76-.62 3.3-1.59 4.51-2.83s2.03-2.73 2.4-4.32zM25.54 6.87l-2.23-1.9c-1.98.65-3.69 1.8-4.9 3.3s-1.85 3.28-1.86 5.1c0 2 .8 3.96 2.25 5.54s3.48 2.7 5.76 3.2c2.04-2.12 3.23-4.75 3.41-7.49s-.68-5.45-2.43-7.75zM40.83 14.87c-.01-2.39-1.12-4.67-3.1-6.36s-4.65-2.64-7.44-2.64a12 12 0 0 0-3.77.6l13.6 11.62c.47-1.03.7-2.12.7-3.22z"/>
    </symbol>
    <symbol id="icon-customers-4" viewBox="0 0 59 32">
      <path d="M13.76 12.3c-1.37 0-2.47 1-2.47 2.22 0 1.23 1.1 2.23 2.47 2.23 1.36 0 2.47-1 2.47-2.23s-1.1-2.22-2.47-2.22zM31.98 11.59c0-1.71-.76-3.35-2.1-4.56s-3.15-1.88-5.04-1.89c-1.9 0-3.71.69-5.05 1.9s-2.1 2.84-2.1 4.54V21s14.29-1.44 14.29-9.41zM6.29 24.09c0 1.19.52 2.32 1.46 3.16s2.19 1.32 3.5 1.32c1.32 0 2.59-.48 3.52-1.32s1.45-1.97 1.46-3.16v-6.55s-9.94 1-9.94 6.55zm4.97 1.17c-.26 0-.51-.07-.73-.2s-.38-.3-.48-.52-.12-.45-.07-.68c.05-.23.17-.44.36-.6a1.42 1.42 0 0 1 1.42-.26c.23.1.44.24.58.44a1.1 1.1 0 0 1-.16 1.48 1.35 1.35 0 0 1-.92.35zM20.35 23.15v2.44h-.5v-2.44h.5zm.97 1.04v.4h-1.1v-.4h1.1zm.12-1.04v.4H20.2v-.4h1.23zm2.29 1.16v.12c0 .18-.03.35-.07.5s-.13.27-.22.37c-.09.1-.2.19-.33.24-.12.06-.26.08-.42.08a.95.95 0 0 1-.75-.32c-.09-.1-.16-.22-.21-.37a1.55 1.55 0 0 1-.08-.5v-.12c0-.18.03-.35.08-.5.05-.14.12-.27.21-.37.1-.1.2-.19.33-.24.13-.06.27-.08.42-.08.15 0 .3.02.42.08.13.05.24.13.33.24.1.1.16.23.21.37.05.15.08.32.08.5zm-.5.12v-.12c0-.13-.02-.24-.04-.34s-.06-.18-.1-.25-.1-.12-.17-.15c-.07-.04-.15-.05-.23-.05s-.16.01-.23.05a.46.46 0 0 0-.16.15c-.05.07-.08.15-.1.25s-.04.21-.04.34v.12c0 .13.01.24.04.34.02.1.05.18.1.25s.1.12.17.15.14.05.22.05c.09 0 .16-.01.23-.05s.12-.08.16-.15a.76.76 0 0 0 .1-.25c.03-.1.04-.21.04-.34zm2.13.52c0-.04 0-.08-.02-.12a.22.22 0 0 0-.07-.1l-.15-.08a2.35 2.35 0 0 0-.24-.1 3.17 3.17 0 0 1-.31-.11c-.1-.05-.19-.1-.27-.16a.58.58 0 0 1-.24-.48c0-.1.03-.2.07-.28.05-.08.1-.15.19-.21.08-.06.17-.11.28-.14a1.3 1.3 0 0 1 .84.05c.13.06.23.15.3.26.08.11.12.24.12.39h-.5a.38.38 0 0 0-.04-.19.3.3 0 0 0-.14-.13.48.48 0 0 0-.22-.05.52.52 0 0 0-.22.04.3.3 0 0 0-.13.1.26.26 0 0 0-.05.16c0 .04.01.08.03.1l.1.1.15.08.21.08c.13.04.25.08.35.14a.73.73 0 0 1 .4.38c.04.08.06.17.06.27s-.02.2-.06.28-.1.16-.18.22c-.08.05-.17.1-.28.13a1.37 1.37 0 0 1-1.04-.15c-.1-.07-.17-.15-.23-.25s-.08-.22-.08-.36h.5c0 .08.01.14.04.2s.05.1.1.12c.04.04.09.06.15.07.06.02.12.03.2.03.08 0 .15-.02.21-.04.06-.03.1-.06.13-.1.02-.05.04-.1.04-.15zm1.93-1.8v2.44h-.5v-2.44h.5zm.75 0v.4h-1.98v-.4h1.98zm1.93 2.05v.39h-1.3v-.4h1.3zm-1.14-2.05v2.44h-.5v-2.44h.5zm.97 1v.38h-1.13v-.39h1.13zm.16-1v.4h-1.3v-.4h1.3zm.3 0h.9c.2 0 .35.03.49.09.13.05.24.13.3.24a.83.83 0 0 1 .05.74c-.04.1-.1.17-.19.24a.97.97 0 0 1-.28.14l-.15.09h-.8v-.4h.6c.08 0 .15-.01.21-.04s.1-.08.13-.13a.4.4 0 0 0 .05-.2c0-.08-.02-.14-.05-.2s-.07-.1-.13-.13-.13-.05-.22-.05h-.41v2.05h-.5v-2.44zm1.36 2.44-.56-1.09h.54l.56 1.07v.02h-.54zm2.64-.87h-.62v-.4h.62a.5.5 0 0 0 .23-.04c.06-.03.1-.08.13-.13s.05-.12.05-.2c0-.07-.02-.14-.05-.2s-.07-.11-.13-.15-.14-.06-.23-.06h-.45v2.05h-.5v-2.44h.95c.19 0 .35.04.49.1a.74.74 0 0 1 .42.7c0 .16-.03.3-.1.4s-.18.21-.32.27c-.14.07-.3.1-.5.1zm2.9.48v.39h-1.3v-.4h1.3zm-1.14-2.05v2.44h-.5v-2.44h.5zm.96 1v.38h-1.12v-.39h1.12zm.17-1v.4h-1.3v-.4h1.3zm1.42 0v2.44h-.5v-2.44h.5zm.75 0v.4h-1.99v-.4h2zm1.92 2.05v.39h-1.3v-.4h1.3zm-1.13-2.05v2.44h-.5v-2.44h.5zm.96 1v.38h-1.12v-.39h1.12zm.17-1v.4h-1.3v-.4h1.3zm.3 0h.9c.19 0 .35.03.48.09.14.05.24.13.31.24s.11.25.11.4c0 .14-.02.25-.06.34-.05.1-.1.17-.19.24a.97.97 0 0 1-.28.14l-.16.09h-.79v-.4h.59c.08 0 .16-.01.22-.04s.1-.08.13-.13a.4.4 0 0 0 .04-.2c0-.08-.01-.14-.04-.2s-.07-.1-.13-.13a.49.49 0 0 0-.23-.05h-.4v2.05h-.5v-2.44zm1.36 2.44-.56-1.09h.53l.57 1.07v.02h-.54zm2.1-.64c0-.04 0-.08-.02-.12a.22.22 0 0 0-.07-.1l-.15-.08a2.35 2.35 0 0 0-.24-.1 3.08 3.08 0 0 1-.31-.11c-.1-.05-.19-.1-.26-.16a.58.58 0 0 1-.24-.48c0-.1.02-.2.06-.28.05-.08.1-.15.19-.21.08-.06.17-.11.28-.14a1.3 1.3 0 0 1 .84.05c.13.06.23.15.3.26.08.11.12.24.12.39H45a.38.38 0 0 0-.04-.19.3.3 0 0 0-.14-.13.48.48 0 0 0-.22-.05.52.52 0 0 0-.22.04.3.3 0 0 0-.13.1.26.26 0 0 0-.05.16c0 .04.01.08.03.1l.1.1.15.08.21.08c.13.04.25.08.35.14a.73.73 0 0 1 .4.38c.04.08.06.17.06.27s-.02.2-.06.28-.1.16-.18.22c-.08.05-.17.1-.28.13a1.37 1.37 0 0 1-1.04-.15c-.1-.07-.17-.15-.23-.25s-.08-.22-.08-.36h.5c0 .08.01.14.03.2s.06.1.1.12c.05.04.1.06.16.07.06.02.12.03.2.03.08 0 .15-.02.21-.04.06-.03.1-.06.13-.1.02-.05.04-.1.04-.15z"/>
    </symbol>
    <symbol id="icon-customers-5" viewBox="0 0 59 32">
      <path d="M15.31 25.36a.8.8 0 0 1 .21.55c0 .13-.02.26-.07.38s-.15.23-.26.32c-.27.18-.6.27-.95.25h-1.67v-3.5h1.64c.32-.02.64.06.9.23.11.08.2.18.25.3s.08.23.07.36c.01.19-.05.38-.19.53a.91.91 0 0 1-.5.28c.23.03.43.14.57.3zm-1.96-.53h.7c.16 0 .32-.03.44-.12.06-.04.1-.1.12-.15s.04-.13.03-.2a.4.4 0 0 0-.14-.33.73.73 0 0 0-.46-.12h-.69v.92zm1.21 1.34c.06-.04.1-.1.13-.16s.04-.13.04-.2c0-.06-.01-.13-.04-.2s-.08-.11-.13-.16a.79.79 0 0 0-.48-.12h-.73v.96h.74a.8.8 0 0 0 .47-.12zM18.66 26.86l-.92-1.37h-.34v1.37h-.78v-3.5h1.48c.38-.03.75.08 1.04.3.2.19.33.44.35.7s-.07.53-.24.75c-.19.18-.44.31-.71.35l.97 1.4h-.85zm-1.26-1.84h.64c.45 0 .67-.18.67-.54 0-.07 0-.14-.04-.2s-.07-.14-.12-.19a.75.75 0 0 0-.5-.14h-.66l.01 1.07zM22.94 26.16h-1.56l-.28.7h-.82l1.43-3.46h.9l1.42 3.46h-.82l-.27-.7zm-.21-.53-.57-1.48-.57 1.48h1.14zM28.3 26.86h-.78l-1.74-2.38v2.38H25v-3.5h.78l1.74 2.4v-2.4h.78v3.5zM32.74 26.02c-.16.27-.4.48-.7.62a2.5 2.5 0 0 1-1.1.22h-1.38v-3.5h1.38c.38-.01.75.06 1.1.21.3.14.54.35.7.62a1.87 1.87 0 0 1 0 1.83zm-.9-.08c.23-.23.35-.53.35-.84s-.12-.6-.34-.83a1.45 1.45 0 0 0-.98-.3h-.54v2.27h.54c.36.02.7-.09.98-.3zM23.43 3.87s10.03 3.4 9.82 8.35v8.35s-10.03-3.42-9.82-8.35V3.87zM42.2 18.61c1.89-1.17 4.08-1.9 6.37-2.11v-2.62a12.88 12.88 0 0 0-6.38 4.73z"/>
      <path d="M41.05 19.4a13.25 13.25 0 0 1 7.52-6.07V5.8s-14.3 4.86-14 11.9v11.88s.65-.22 1.65-.62c0-.38 0-.77.04-1.15a12 12 0 0 1 4.8-8.41z"/>
      <path d="M39.7 23.82c.07-.83.24-1.64.5-2.44a10.91 10.91 0 0 0-3.03 7.18c.81-.35 1.76-.79 2.75-1.3a11.1 11.1 0 0 1-.22-3.44zM40.26 23.86a10.6 10.6 0 0 0 .18 3.12c3.9-2.1 8.3-5.36 8.13-9.29v-.34c-2.8.28-5.4 1.38-7.43 3.13a10.75 10.75 0 0 0-.88 3.38z"/>
    </symbol>
    <symbol id="icon-customers-6" viewBox="0 0 56 32">
      <path d="M29.03 14.88a1.6 1.6 0 0 1-.33-1.08v-1.56c0-.48.11-.85.33-1.1s.6-.37 1.12-.37c.5 0 .86.1 1.07.32.22.27.34.6.31.94v.36h-.9v-.37c.01-.12 0-.24-.02-.36a.36.36 0 0 0-.12-.22.52.52 0 0 0-.33-.08.55.55 0 0 0-.34.08.42.42 0 0 0-.15.24 1.8 1.8 0 0 0-.03.39v1.9c-.01.18.02.37.11.54.05.05.1.1.18.12s.15.04.23.03c.12.01.23-.02.32-.08a.38.38 0 0 0 .13-.23l.03-.38v-.39h.89v.35c.03.35-.08.7-.3.99-.21.23-.56.35-1.07.35s-.9-.13-1.13-.39zM32.75 14.9c-.23-.24-.34-.6-.34-1.07v-1.65c0-.46.11-.81.34-1.05s.6-.36 1.13-.36c.52 0 .9.12 1.12.36.23.24.34.59.34 1.05v1.65c0 .47-.11.82-.34 1.07s-.6.37-1.12.37-.9-.13-1.13-.37zm1.54-.4a.92.92 0 0 0 .1-.48V12a.9.9 0 0 0-.1-.48c-.04-.06-.1-.1-.18-.13s-.15-.04-.23-.03c-.08 0-.17 0-.24.03s-.14.07-.18.13a.87.87 0 0 0-.1.48v2.03c-.02.17.02.33.1.49a.62.62 0 0 0 .83 0v-.02zM36.41 10.82h.96l.73 3.04.74-3.04h.93l.1 4.39h-.7l-.07-3.05-.72 3.05h-.55l-.74-3.06-.07 3.06h-.7l.1-4.4zM40.94 10.82h1.5c.86 0 1.29.41 1.29 1.24 0 .8-.45 1.2-1.36 1.2h-.51v1.95h-.92v-4.4zm1.28 1.87c.09.01.18 0 .27-.02s.17-.06.24-.11a.7.7 0 0 0 .13-.5c0-.13-.01-.27-.04-.4l-.07-.12a.3.3 0 0 0-.12-.08.96.96 0 0 0-.41-.07h-.36v1.3h.36zM45.06 10.82h1l1 4.39h-.85l-.2-1.02h-.89l-.2 1.02h-.88l1.02-4.4zm.85 2.87-.35-1.85-.34 1.85h.69zM47.9 10.82h.64l1.23 2.5v-2.5h.77v4.39h-.61l-1.25-2.62v2.62h-.8l.01-4.4zM52.34 13.53l-1.03-2.7h.86l.63 1.73.59-1.74h.85l-1.02 2.71v1.68h-.89v-1.68zM30.46 17.13v.22h-.75v1.79h-.32v-1.79h-.76v-.23h1.83zM32.82 19.14h-.24a.1.1 0 0 1-.07-.02.11.11 0 0 1-.04-.05l-.22-.48H31.2l-.21.48-.04.06a.11.11 0 0 1-.06.02h-.25l.92-2.02h.33l.93 2zm-1.53-.75h.87l-.37-.82a1.43 1.43 0 0 1-.06-.19l-.04.1-.03.1-.37.8zM34.41 18.94h.18l.14-.02.14-.04.12-.05v-.45h-.39l-.03-.02-.01-.01v-.18h.71v.77a1.4 1.4 0 0 1-.62.2c-.1.02-.18.02-.27.02a1.4 1.4 0 0 1-.47-.07 1.13 1.13 0 0 1-.37-.21.96.96 0 0 1-.32-.74c0-.14.03-.29.08-.42a.93.93 0 0 1 .24-.32c.1-.1.23-.16.37-.21a1.56 1.56 0 0 1 .75-.06 1.35 1.35 0 0 1 .4.13l.17.1-.09.13-.03.03-.04.01-.06-.01a1.18 1.18 0 0 1-.09-.05 1.21 1.21 0 0 0-.89-.06c-.1.03-.19.09-.26.16a.7.7 0 0 0-.18.25.94.94 0 0 0 0 .67c.04.1.1.18.19.25a.8.8 0 0 0 .63.2zM37.36 18.9h1v.24h-1.31v-2.02h.31v1.79zM39.41 19.14h-.31v-2.02h.31v2.02zM40.59 17.13l.04.04L42 18.7V17.12h.27v2.02h-.16l-.07-.01a.19.19 0 0 1-.05-.04l-1.34-1.52V19.14h-.27v-2.01H40.6zM44.59 17.13v.22h-1.12V18h.9v.21h-.9v.7h1.12v.21h-1.45v-2h1.45zM11.5 4.7l14.02 3.43v12.04L11.5 16.73V4.7zm-.9-1.03v13.65L26.4 21.2V7.55L10.6 3.67z"/>
      <path d="M19.07 27.53 3.25 23.65V10.01l15.82 3.87v13.65zM10.86 4.54l13.84 3.4L18.8 13 4.97 9.62l5.89-5.08zm-.26-.87L3.25 10l15.82 3.88 7.34-6.33L10.6 3.67zM19.96 26.77l6.45-5.57-6.45-1.58v7.15z"/>
    </symbol>
    <symbol id="icon-diligence" viewBox="0 0 32 32">
      <path fill="#4d5ae5" style="fill:var(--color1, #4d5ae5)" d="M14.93 14.96h1.06v4.8h-1.06v-4.8zM19.19 17.1h1.07v2.66h-1.07V17.1zM10.66 18.7h1.07v1.06h-1.07V18.7zM7.46 18.16h1.07v1.6H7.46v-1.6z"/>
      <path fill="#2e2f42" style="fill:var(--color2, #2e2f42)" d="M1.6 28.3h25.59c.88 0 1.6-.73 1.6-1.6v-2.14c0-.88-.72-1.6-1.6-1.6h-.54V9.66l3.03-2.86a1.6 1.6 0 1 0-.75-.76L26.65 8.2V6.97c0-.88-.71-1.6-1.6-1.6H3.73c-.88 0-1.6.72-1.6 1.6v16H1.6c-.88 0-1.6.7-1.6 1.6v2.12c0 .89.72 1.6 1.6 1.6zM30.38 4.83a.53.53 0 1 1 0 1.06.53.53 0 0 1 0-1.06zM3.2 6.97c0-.3.24-.53.53-.53h21.32c.3 0 .54.23.54.53V9.2l-1.07 1.01V8.03c0-.29-.24-.53-.53-.53H4.79c-.29 0-.53.24-.53.53v13.33c0 .3.24.53.54.53h19.19c.3 0 .53-.23.53-.53V11.7l1.07-1.01v12.28H3.19v-16zM8 13.9a1.6 1.6 0 1 0 1.1 2.75l1.86.93c.21.1.47.06.63-.12l3.94-4.44 3.87 2.9c.21.16.5.14.69-.03l3.36-3.2v8.14H5.33V8.57h18.12v2.66l-3.77 3.57-3.9-2.93a.53.53 0 0 0-.72.08l-4 4.49-1.49-.75c.02-.06.02-.13.02-.19 0-.88-.71-1.6-1.6-1.6zm.53 1.6a.53.53 0 1 1-1.07 0 .53.53 0 0 1 1.07 0zm3.2 8.53h5.33v.53c0 .3-.24.53-.53.53h-4.27a.53.53 0 0 1-.53-.53v-.53zm-10.66.53c0-.3.24-.53.53-.53h9.06v.53c0 .88.72 1.6 1.6 1.6h4.26c.89 0 1.6-.72 1.6-1.6v-.53h9.06c.3 0 .54.24.54.53v2.13c0 .3-.24.53-.53.53H1.59a.53.53 0 0 1-.52-.53v-2.13z"/>
    </symbol>
    <symbol id="icon-facebook" viewBox="0 0 32 32">
      <path fill="#f4f4fd" style="fill:var(--color3, #f4f4fd)" d="M21.33 5.31h2.92V.23C23.75.15 22.01 0 19.99 0c-4.2 0-7.1 2.65-7.1 7.52V12H8.26v5.69h4.65V32h5.7V17.69h4.46l.7-5.69H18.6V8.08c0-1.64.45-2.77 2.74-2.77z"/>
    </symbol>
    <symbol id="icon-instagram" viewBox="0 0 32 32">
      <path fill="#f4f4fd" style="fill:var(--color3, #f4f4fd)" d="M31.97 9.4a11.7 11.7 0 0 0-.74-3.87 7.8 7.8 0 0 0-1.85-2.84A7.87 7.87 0 0 0 26.54.84C25.52.45 24.36.17 22.66.1 20.95.02 20.4 0 16.06 0s-4.89.02-6.6.1C7.76.16 6.6.43 5.58.83a7.8 7.8 0 0 0-2.83 1.85A7.87 7.87 0 0 0 .9 5.52C.5 6.54.23 7.7.16 9.4c-.08 1.71-.1 2.26-.1 6.6s.02 4.9.1 6.6c.07 1.7.34 2.87.73 3.88a7.9 7.9 0 0 0 1.85 2.84c.8.81 1.77 1.44 2.84 1.84 1.02.4 2.18.67 3.88.75 1.7.07 2.25.09 6.6.09s4.88-.02 6.59-.1a11.7 11.7 0 0 0 3.88-.74 8.18 8.18 0 0 0 4.68-4.68c.4-1.02.67-2.18.75-3.88.07-1.7.1-2.25.1-6.6s-.02-4.89-.09-6.6zm-2.88 13.07a8.76 8.76 0 0 1-.55 2.97 5.3 5.3 0 0 1-3.04 3.04c-.56.22-1.41.48-2.97.55-1.69.07-2.2.1-6.46.1s-4.79-.02-6.47-.1a8.76 8.76 0 0 1-2.97-.55 4.93 4.93 0 0 1-1.84-1.2 4.97 4.97 0 0 1-1.19-1.83 8.81 8.81 0 0 1-.55-2.97c-.07-1.69-.1-2.2-.1-6.47s.03-4.78.1-6.46c.07-1.56.33-2.4.55-2.97.26-.7.66-1.32 1.2-1.84a4.97 4.97 0 0 1 1.84-1.19A8.81 8.81 0 0 1 9.6 3c1.69-.07 2.2-.1 6.46-.1 4.28 0 4.78.03 6.47.1 1.56.07 2.4.33 2.96.55.7.26 1.33.66 1.84 1.2.53.51.94 1.14 1.2 1.83.22.57.48 1.42.55 2.97.07 1.69.1 2.2.1 6.46s-.03 4.77-.1 6.46z"/>
      <path fill="#f4f4fd" style="fill:var(--color3, #f4f4fd)" d="M16.06 7.78a8.22 8.22 0 1 0 0 16.45 8.22 8.22 0 0 0 0-16.45zm0 13.55a5.33 5.33 0 1 1 0-10.66 5.33 5.33 0 0 1 0 10.67zM26.52 7.46a1.92 1.92 0 1 1-3.83 0 1.92 1.92 0 0 1 3.83 0z"/>
    </symbol>
    <symbol id="icon-linkedin" viewBox="0 0 32 32">
      <path fill="#f4f4fd" style="fill:var(--color3, #f4f4fd)" d="M32 32V20.26c0-5.74-1.24-10.16-7.95-10.16-3.23 0-5.39 1.77-6.27 3.45h-.1v-2.92h-6.36V32h6.63V21.42c0-2.79.52-5.48 3.97-5.48 3.4 0 3.45 3.18 3.45 5.66V32H32zM.53 10.64h6.63V32H.53V10.64zM3.84 0C1.72 0 0 1.72 0 3.84s1.72 3.88 3.84 3.88A3.88 3.88 0 0 0 7.7 3.84 3.85 3.85 0 0 0 3.84 0z"/>
    </symbol>
    <symbol id="icon-punctuality" viewBox="0 0 32 32">
      <path fill="#2e2f42" style="fill:var(--color2, #2e2f42)" d="M31.3 15.3a15.3 15.3 0 1 0-19.96 14.58l.18.03c.12 0 .24-.03.35-.1.13-.07.23-.2.28-.35L16 17.21a1.91 1.91 0 1 0-.84-3.63l-5.1-5.1a.64.64 0 0 0-.9.9l5.1 5.1c-.4.8-.17 1.77.53 2.31l-3.68 11.67a14.04 14.04 0 1 1 10.57-.35l-.4-1.87a.64.64 0 0 0-1.05-.34l-3.83 3.42a.64.64 0 0 0 .23 1.09l4.9 1.56a.64.64 0 0 0 .82-.74l-.4-1.84A15.26 15.26 0 0 0 31.3 15.3zM16 14.66a.64.64 0 1 1 0 1.28.64.64 0 0 1 0-1.28zm2.1 14.87 2.18-1.95.6 2.84-2.79-.9z"/>
      <path fill="#4d5ae5" style="fill:var(--color1, #4d5ae5)" d="M15.35 3.19v1.27a.64.64 0 1 0 1.28 0V3.19a.64.64 0 0 0-1.28 0zM3.88 14.66a.64.64 0 0 0 0 1.28h1.27a.64.64 0 1 0 0-1.28H3.88zM28.1 15.94a.64.64 0 1 0 0-1.28h-1.27a.64.64 0 0 0 0 1.28h1.28z"/>
    </symbol>
    <symbol id="icon-strategy" viewBox="0 0 30 32">
      <path fill="#2e2f42" style="fill:var(--color2, #2e2f42)" d="m29.77 22.1-8.44-8.5.94-4.62c.24.1.5.14.75.14h.01a2.16 2.16 0 1 0-2-1.43l-4.97.6L7.97.16A.53.53 0 0 0 7.6 0a.53.53 0 0 0-.37.16l-1.51 1.5c-.2.2-.2.55 0 .75l.81.83A14.94 14.94 0 0 0 9.04 20.9c.05.04.1.08.15.1-.04.18-.05.36-.05.55v6.18h-6.4A2.67 2.67 0 0 0 .07 30.4v1.07c0 .3.24.53.53.53h24.54c.29 0 .53-.24.53-.53V30.4c0-1.47-1.2-2.66-2.67-2.66h-6.4v-2.75a14.85 14.85 0 0 0 10.09-1.46l.82.82a.53.53 0 0 0 .75 0l1.51-1.5c.2-.2.2-.54 0-.75zM22.28 6.23a1.07 1.07 0 1 1 .75 1.82 1.07 1.07 0 0 1-.75-1.82zm-1.26 3.5-.6 2.95-1.17-1.18 1.78-1.76zm-.6-.9-1.92 1.92L17 9.25l3.4-.41zM23 28.8c.89 0 1.6.72 1.6 1.6v.53H1.14v-.53c0-.88.71-1.6 1.6-1.6H23zm-7.46-2.13v1.06H10.2v-1.06h5.34zM10.2 25.6v-4.05c0-1.3 1.2-2.35 2.67-2.35s2.67 1.05 2.67 2.35v4.05H10.2zm6.4-1.7v-2.35c0-1.89-1.67-3.42-3.73-3.42a3.8 3.8 0 0 0-3.28 1.79A13.87 13.87 0 0 1 7.31 4.03l18.6 18.71a13.82 13.82 0 0 1-9.3 1.16zm11.3-.68L6.83 2.04l.75-.75 7.94 7.98 13.12 13.2-.76.75z"/>
      <path fill="#4d5ae5" style="fill:var(--color1, #4d5ae5)" d="M12.88 20.27a1.6 1.6 0 1 0-.01 3.2 1.6 1.6 0 1 0 0-3.2zm.37 1.98c-.1.1-.24.15-.38.15a.53.53 0 0 1 0-1.07.53.53 0 0 1 .37.92z"/>
    </symbol>
    <symbol id="icon-technologies" viewBox="0 0 32 32">
      <path fill="#4d5ae5" style="fill:var(--color1, #4d5ae5)" d="M31.97 4.52a.53.53 0 0 0-.43-.36l-1.9-.28-.86-1.73c-.18-.36-.78-.36-.96 0l-.85 1.73-1.91.28a.54.54 0 0 0-.3.91l1.38 1.35-.32 1.9c-.04.2.05.4.21.52.17.12.38.14.56.04l1.71-.9 1.71.9a.54.54 0 0 0 .78-.56l-.33-1.9 1.38-1.35c.15-.14.2-.35.14-.55zm-2.46 1.33a.53.53 0 0 0-.15.47l.19 1.12-1-.53a.53.53 0 0 0-.5 0l-1 .53.2-1.12a.53.53 0 0 0-.16-.47l-.81-.79 1.12-.16a.53.53 0 0 0 .4-.3l.5-1 .5 1c.08.16.23.27.4.3l1.12.16-.8.8zM26.13 20.52h-1.06v1.07h1.06v-1.07zM26.13 22.66h-1.06v1.06h1.06v-1.06zM27.2 21.59h-1.07v1.07h1.07v-1.07zM25.07 21.59H24v1.07h1.07v-1.07zM22.4 26.39h-1.07v1.07h1.07v-1.07zM22.4 28.52h-1.07v1.07h1.07v-1.07zM23.47 27.46H22.4v1.06h1.07v-1.06zM21.33 27.46h-1.06v1.06h1.06v-1.06zM16 24.26h-1.07v1.06H16v-1.06zM16 26.39h-1.07v1.07H16v-1.07zM17.07 25.32H16v1.07h1.07v-1.07zM14.93 25.32h-1.06v1.07h1.06v-1.07zM5.87 6.12H4.8V7.2h1.07V6.12zM5.87 8.26H4.8v1.06h1.07V8.26zM6.93 7.19H5.87v1.07h1.06V7.19zM4.8 7.19H3.73v1.07H4.8V7.19z"/>
      <path fill="#2e2f42" style="fill:var(--color2, #2e2f42)" d="M24.71 14.16c-.28-.39-.7-.64-1.18-.7-.48-.07-.96.05-1.34.35l-1.26.96-1.9 1.41-1.35-.54A6.94 6.94 0 0 0 14.83 2.4a6.96 6.96 0 0 0-6.96 6.93c0 1.39.42 2.68 1.12 3.76l-2.76-.02H6.2l-.16.03-.03.02h-.02l-3.24 1.6-1.89.9a1.78 1.78 0 0 0 .93 3.3c.3.01.58-.06.84-.2l1.4-.74 2.26-1.17h1.35L2.2 22.2.86 23.55a1.65 1.65 0 0 0 0 2.35 1.67 1.67 0 0 0 2.36 0l1.31-1.3 1.74-1.3.9.89-1.76 1.75-1.34 1.34a1.65 1.65 0 0 0 0 2.36 1.67 1.67 0 0 0 2.36 0l3.48-3.47 1.01-1 .02-.02 5.17-5.66 3.47.5h.07c.07 0 .13-.02.2-.04l.04-.02.06-.03 3.21-2.13.03-.03.04-.03 1.27-1.19c.67-.62.76-1.63.22-2.36zM2.14 17.77a.71.71 0 0 1-.56.05.72.72 0 0 1-.21-1.26l1.31-.63.45 1.31-.99.53zm3.5-1.83-1.55.8-.44-1.28 2.03-1-.04 1.48zm15.1-6.62c0 .92-.22 1.79-.6 2.56l-4.18-1.9a1.86 1.86 0 0 0-.8-1.39l1.47-4.86a5.88 5.88 0 0 1 4.1 5.6zm-11.8 0a5.89 5.89 0 0 1 6.65-5.81l-1.44 4.75h-.05a1.87 1.87 0 1 0 0 3.73c.7 0 1.3-.38 1.62-.95l3.86 1.76A5.9 5.9 0 0 1 8.94 9.32zm5.96.8a.8.8 0 0 1-1.6 0 .8.8 0 0 1 1.6 0zM2.46 25.15a.6.6 0 0 1-.85 0 .6.6 0 0 1 0-.85l.96-.95.85.84-.96.96zm3.22 3.73a.6.6 0 0 1-.86 0 .6.6 0 0 1 0-.84l.97-.96.85.85-.96.95zm3.48-3.47-1.77 1.76-.85-.85 1.76-1.75c.05-.04.07-.09.1-.14l.02-.04c.02-.04.02-.08.03-.13l.01-.07-.02-.1c0-.04 0-.07-.02-.1a.55.55 0 0 0-.09-.14l-.02-.04-1.61-1.6-.06-.04a.5.5 0 0 0-.09-.05.51.51 0 0 0-.09-.04.5.5 0 0 0-.1-.02.5.5 0 0 0-.1 0l-.1.03a.48.48 0 0 0-.1.04l-.06.03-1.77 1.33-.9-.9 2.4-2.39 4.36 4.3-.93.91zm6.82-7.02h-.05a.56.56 0 0 0-.3.08.5.5 0 0 0-.08.06l-.04.03-4.7 5.15-4.33-4.26 2.84-2.82a.53.53 0 0 0-.38-.9H6.72l.03-1.6 3.1.02a6.95 6.95 0 0 0 6.26 1.98c.04.03.08.07.13.09l2.41.96.15.75.18.89-3-.43zm4.04.18-.31-1.56 1.44-1.08.95 1.26-2.08 1.38zm3.75-2.83-.83.79-.94-1.24.84-.64a.73.73 0 0 1 .54-.14.72.72 0 0 1 .4 1.23z"/>
      <path fill="#2e2f42" style="fill:var(--color2, #2e2f42)" d="m13.6 18.54-2.14-2.13a.53.53 0 0 0-.75 0l-2.15 2.13a.54.54 0 0 0 0 .76l2.15 2.13a.54.54 0 0 0 .75 0l2.14-2.13a.54.54 0 0 0 0-.76zm-2.52 1.76L9.7 18.92l1.38-1.38 1.39 1.38-1.39 1.38zM17.16 5.07l-.25 1.04c.07.01 1.73.45 1.73 2.15h1.07c0-2.02-1.66-2.97-2.55-3.19zM19.71 9.32h-1.07v1.07h1.07V9.32z"/>
    </symbol>
    <symbol id="icon-twitter" viewBox="0 0 32 32">
      <path fill="#f4f4fd" style="fill:var(--color3, #f4f4fd)" d="M32 6.08c-1.19.52-2.46.87-3.78 1.03a6.52 6.52 0 0 0 2.89-3.62 13.11 13.11 0 0 1-4.16 1.59 6.57 6.57 0 0 0-11.2 5.98A18.57 18.57 0 0 1 2.23 4.2a6.57 6.57 0 0 0 2.02 8.77 6.48 6.48 0 0 1-2.97-.81v.07a6.59 6.59 0 0 0 5.26 6.44 6.55 6.55 0 0 1-2.97.1 6.62 6.62 0 0 0 6.13 4.58 13.18 13.18 0 0 1-9.7 2.7A18.47 18.47 0 0 0 10.06 29c12.08 0 18.68-10 18.68-18.67 0-.29-.01-.57-.03-.85 1.3-.92 2.4-2.07 3.29-3.4z"/>
    </symbol>
    <symbol id="icon-X" viewBox="0 0 32 32">
      <path d="M32 3.224l-3.224-3.224-12.776 12.776-12.776-12.776-3.224 3.224 12.776 12.776-12.776 12.776 3.224 3.224 12.776-12.776 12.776 12.776 3.224-3.224-12.776-12.776 12.776-12.776z"></path>
    </symbol>
    <symbol id="icon-email" viewBox="0 0 24 32">
      <path d="M20 8h-16c-1.1 0-1.989 0.9-1.989 2l-0.011 12c0 1.1 0.9 2 2 2h16c1.1 0 2-0.9 2-2v-12c0-1.1-0.9-2-2-2zM19.6 12.251l-7.069 4.419c-0.151 0.094-0.334 0.15-0.531 0.15s-0.38-0.056-0.535-0.153l0.004 0.002-7.069-4.419c-0.252-0.15-0.418-0.422-0.418-0.731 0-0.469 0.38-0.849 0.849-0.849 0.174 0 0.337 0.053 0.471 0.143l6.697 4.187 6.7-4.191c0.132-0.088 0.294-0.141 0.468-0.141 0.469 0 0.849 0.38 0.849 0.849 0 0.31-0.166 0.581-0.414 0.729l-0.004 0.002z"></path>
    </symbol>
    <symbol id="icon-person" viewBox="0 0 32 32">
      <path d="M16 16c2.946 0 5.333-2.388 5.333-5.333s-2.388-5.333-5.333-5.333v0c-2.946 0-5.333 2.388-5.333 5.333s2.388 5.333 5.333 5.333v0zM16 18.667c-3.561 0-10.667 1.787-10.667 5.333v1.333c0 0.732 0.599 1.333 1.333 1.333h18.667c0.732 0 1.333-0.601 1.333-1.333v-1.333c0-3.547-7.108-5.333-10.667-5.333z"></path>
    </symbol>
    <symbol id="icon-phone" viewBox="0 0 24 32">
      <path d="M19.635 18.487l-2.451-0.28c-0.067-0.008-0.145-0.013-0.223-0.013-0.531 0-1.012 0.215-1.36 0.564l-1.775 1.775c-2.752-1.42-4.94-3.607-6.322-6.278l-0.038-0.081 1.787-1.785c0.347-0.347 0.562-0.827 0.562-1.358 0-0.079-0.005-0.156-0.014-0.233l0.001 0.009-0.28-2.432c-0.115-0.966-0.93-1.708-1.918-1.708-0.001 0-0.002 0-0.002 0h-1.669c-1.091 0-1.997 0.907-1.929 1.997 0.511 8.24 7.101 14.821 15.332 15.333 1.091 0.067 1.997-0.84 1.997-1.931v-1.669c0-0.003 0-0.007 0-0.011 0-0.981-0.739-1.789-1.69-1.899l-0.009-0.001z"></path>
    </symbol>
    <symbol id="icon-plane" viewBox="0 0 32 32">
      <path fill="#fff" style="fill: var(--color1, #fff)" d="M32 2.667l-32 15 10.227 3.156 15.773-12.323-11.997 13.488 0.009 0.004-0.012-0.004v7.345l5.735-5.576 7.267 2.243 4.999-23.333z"></path>
    </symbol>
    <symbol id="icon-check" viewBox="0 0 40 32">
      <path d="M33.782 1.02a3.668 3.668 0 0 1 5.115.039 3.712 3.712 0 0 1 .135 5.141L19.454 30.817a3.674 3.674 0 0 1-4.074.914 3.675 3.675 0 0 1-1.226-.815L1.17 17.862A3.693 3.693 0 0 1-.001 15.22a3.714 3.714 0 0 1 1.077-2.682 3.664 3.664 0 0 1 4.1-.763 3.68 3.68 0 0 1 1.195.857l10.275 10.325 17.042-21.83c.031-.038.063-.074.098-.109h-.005z"/>
    </symbol>
    <symbol id="icon-mobile-menu-btn" viewBox="0 0 47 32">
      <path stroke-linejoin="round" stroke-linecap="round" stroke-miterlimit="4" stroke-width="4.3636" d="M1.961 29.153h42.964M1.961 15.615h42.964M1.961 2.077h42.964"></path>
    </symbol>
  </defs>
</svg>
